<?xml version="1.0" encoding="UTF-8"?>
<svg width="512px" height="318px" viewBox="0 0 512 318" version="1.1" xmlns="http://www.w3.org/2000/svg" xmlns:xlink="http://www.w3.org/1999/xlink">
    <!-- Generator: Sketch 50.2 (55047) - http://www.bohemiancoding.com/sketch -->
    <title>album</title>
    <desc>Created with Sketch.</desc>
    <defs></defs>
    <g id="Welcome" stroke="none" stroke-width="1" fill="none" fill-rule="evenodd">
        <g id="Desktop-HD" transform="translate(-280.000000, -531.000000)" fill-rule="nonzero">
            <g id="album" transform="translate(280.000000, 531.000000)">
                <rect id="Rectangle-path" fill="#7BED9F" x="26.483" y="0.103" width="291.31" height="317.793"></rect>
                <path d="M370.759,17.759 C352.009,17.759 334.16,21.493 317.793,28.123 L317.793,289.879 C334.159,296.508 352.009,300.243 370.759,300.243 C448.759,300.241 512,237.009 512,159 C512,80.991 448.759,17.759 370.759,17.759 Z" id="Shape" fill="#D0D6ED"></path>
                <path d="M370.759,88.379 C349.635,88.379 330.735,97.701 317.793,112.399 L317.793,205.609 C330.734,220.298 349.634,229.62 370.759,229.62 C409.759,229.62 441.38,198 441.38,158.999 C441.38,119.998 409.759,88.379 370.759,88.379 Z" id="Shape" fill="#727C9B"></path>
                <rect id="Rectangle-path" fill="#2ED573" x="0" y="0.103" width="35.31" height="317.793"></rect>
                <circle id="Oval" fill="#EBBA16" cx="176.552" cy="159" r="79.448"></circle>
                <g id="Group" transform="translate(123.000000, 106.000000)" fill="#FFFFFF">
                    <path d="M53.552,105.966 C24.35,105.966 0.586,82.211 0.586,53 C0.586,23.789 24.35,0.034 53.552,0.034 C58.425,0.034 62.38,3.989 62.38,8.862 C62.38,13.735 58.425,17.69 53.552,17.69 C34.078,17.69 18.242,33.527 18.242,53 C18.242,72.473 34.079,88.31 53.552,88.31 C73.025,88.31 88.862,72.473 88.862,53 C88.862,48.127 92.817,44.172 97.69,44.172 C102.563,44.172 106.518,48.127 106.518,53 C106.517,82.21 82.753,105.966 53.552,105.966 Z" id="Shape"></path>
                    <circle id="Oval" cx="247.759" cy="53" r="26.483"></circle>
                </g>
                <g id="Group" transform="translate(61.000000, 26.000000)" fill="#2ED573">
                    <path d="M159.69,265.414 L9.621,265.414 C4.748,265.414 0.793,261.459 0.793,256.586 C0.793,251.713 4.748,247.758 9.621,247.758 L159.69,247.758 C164.563,247.758 168.518,251.713 168.518,256.586 C168.518,261.459 164.562,265.414 159.69,265.414 Z" id="Shape"></path>
                    <path d="M221.483,265.414 L203.828,265.414 C198.955,265.414 195,261.459 195,256.586 C195,251.713 198.955,247.758 203.828,247.758 L221.483,247.758 C226.356,247.758 230.311,251.713 230.311,256.586 C230.311,261.459 226.356,265.414 221.483,265.414 Z" id="Shape"></path>
                    <path d="M221.483,18.241 L71.414,18.241 C66.541,18.241 62.586,14.286 62.586,9.413 C62.586,4.54 66.541,0.585 71.414,0.585 L221.483,0.585 C226.356,0.585 230.311,4.54 230.311,9.413 C230.31,14.287 226.356,18.241 221.483,18.241 Z" id="Shape"></path>
                    <path d="M27.276,18.241 L9.621,18.241 C4.748,18.241 0.793,14.286 0.793,9.413 C0.793,4.54 4.748,0.585 9.621,0.585 L27.276,0.585 C32.149,0.585 36.104,4.54 36.104,9.413 C36.103,14.287 32.149,18.241 27.276,18.241 Z" id="Shape"></path>
                </g>
            </g>
        </g>
    </g>
</svg>