<?xml version="1.0" encoding="UTF-8"?>
<svg width="512px" height="407px" viewBox="0 0 512 407" version="1.1" xmlns="http://www.w3.org/2000/svg" xmlns:xlink="http://www.w3.org/1999/xlink">
    <!-- Generator: Sketch 50.2 (55047) - http://www.bohemiancoding.com/sketch -->
    <title>boombox</title>
    <desc>Created with Sketch.</desc>
    <defs>
        <polygon id="path-1" points="0.06 0.931 512 0.931 512 406.94 0.06 406.94"></polygon>
    </defs>
    <g id="boombox" stroke="none" stroke-width="1" fill="none" fill-rule="evenodd">
        <path d="M467.862,0.931 L44.138,0.931 C34.388,0.931 26.483,8.835 26.483,18.586 L26.483,89.207 L44.138,89.207 L44.138,45.069 C44.138,40.194 48.091,36.241 52.966,36.241 L459.034,36.241 C463.91,36.241 467.862,40.194 467.862,45.069 L467.862,89.207 L485.517,89.207 L485.517,18.586 C485.517,8.835 477.612,0.931 467.862,0.931" id="Fill-1" fill="#A9B2C5"></path>
        <g id="Group-6">
            <mask id="mask-2" fill="white">
                <use xlink:href="#path-1"></use>
            </mask>
            <g id="Clip-3"></g>
            <path d="M450.207,0.931 L61.793,0.931 C56.918,0.931 52.966,4.884 52.966,9.759 L52.966,27.414 C52.966,32.289 56.918,36.241 61.793,36.241 L450.207,36.241 C455.082,36.241 459.034,32.289 459.034,27.414 L459.034,9.759 C459.034,4.884 455.082,0.931 450.207,0.931" id="Fill-2" fill="#555761" mask="url(#mask-2)"></path>
            <path d="M503.172,407 L8.828,407 C3.953,407 0,403.047 0,398.172 L0,89.207 C0,84.332 3.953,80.379 8.828,80.379 L503.172,80.379 C508.047,80.379 512,84.332 512,89.207 L512,398.172 C512,403.047 508.047,407 503.172,407" id="Fill-4" fill="#7BED9F" mask="url(#mask-2)"></path>
            <path d="M503.172,80.379 L8.828,80.379 C3.953,80.379 0,84.332 0,89.207 L0,142.172 L512,142.172 L512,89.207 C512,84.332 508.047,80.379 503.172,80.379" id="Fill-5" fill="#2ED573" mask="url(#mask-2)"></path>
        </g>
        <path d="M291.31,318.724 L220.69,318.724 C215.815,318.724 211.862,314.772 211.862,309.897 L211.862,256.931 C211.862,252.056 215.815,248.103 220.69,248.103 L291.31,248.103 C296.185,248.103 300.138,252.056 300.138,256.931 L300.138,309.897 C300.138,314.772 296.185,318.724 291.31,318.724" id="Fill-7" fill="#787D8C"></path>
        <path d="M194.207,371.69 L44.138,371.69 C39.263,371.69 35.31,367.737 35.31,362.862 L35.31,212.793 C35.31,207.918 39.263,203.965 44.138,203.965 L194.207,203.965 C199.082,203.965 203.034,207.918 203.034,212.793 L203.034,362.862 C203.034,367.737 199.082,371.69 194.207,371.69" id="Fill-8" fill="#3F3F48"></path>
        <path d="M119.172,221.621 C155.737,221.621 185.379,251.262 185.379,287.828 C185.379,324.393 155.737,354.034 119.172,354.034 C82.607,354.034 52.966,324.393 52.966,287.828 C52.966,251.262 82.607,221.621 119.172,221.621" id="Fill-9" fill="#787D8C"></path>
        <path d="M119.172,239.276 C145.987,239.276 167.724,261.013 167.724,287.828 C167.724,314.642 145.987,336.379 119.172,336.379 C92.358,336.379 70.621,314.642 70.621,287.828 C70.621,261.013 92.358,239.276 119.172,239.276" id="Fill-10" fill="#555761"></path>
        <path d="M273.655,292.241 L238.345,292.241 C233.465,292.241 229.517,288.293 229.517,283.414 C229.517,278.534 233.465,274.586 238.345,274.586 L273.655,274.586 C278.535,274.586 282.483,278.534 282.483,283.414 C282.483,288.293 278.535,292.241 273.655,292.241" id="Fill-11" fill="#3F3F48"></path>
        <path d="M238.345,274.586 C243.22,274.586 247.172,278.538 247.172,283.414 C247.172,288.289 243.22,292.241 238.345,292.241 C233.469,292.241 229.517,288.289 229.517,283.414 C229.517,278.538 233.469,274.586 238.345,274.586" id="Fill-12" fill="#E3E9F0"></path>
        <path d="M273.655,274.586 C278.531,274.586 282.483,278.538 282.483,283.414 C282.483,288.289 278.531,292.241 273.655,292.241 C268.78,292.241 264.828,288.289 264.828,283.414 C264.828,278.538 268.78,274.586 273.655,274.586" id="Fill-13" fill="#E3E9F0"></path>
        <path d="M238.345,354.034 L229.517,354.034 C224.638,354.034 220.69,350.086 220.69,345.207 C220.69,340.327 224.638,336.379 229.517,336.379 L238.345,336.379 C243.224,336.379 247.172,340.327 247.172,345.207 C247.172,350.086 243.224,354.034 238.345,354.034" id="Fill-14" fill="#FBD866"></path>
        <path d="M282.483,354.034 L273.655,354.034 C268.776,354.034 264.828,350.086 264.828,345.207 C264.828,340.327 268.776,336.379 273.655,336.379 L282.483,336.379 C287.362,336.379 291.31,340.327 291.31,345.207 C291.31,350.086 287.362,354.034 282.483,354.034" id="Fill-15" fill="#FBD866"></path>
        <path d="M52.966,168.655 L361.931,168.655 C366.806,168.655 370.759,164.703 370.759,159.828 L370.759,124.517 C370.759,119.642 366.806,115.69 361.931,115.69 L52.966,115.69 C48.091,115.69 44.138,119.642 44.138,124.517 L44.138,159.828 C44.138,164.703 48.091,168.655 52.966,168.655" id="Fill-16" fill="#FBD866"></path>
        <path d="M119.172,265.759 C131.361,265.759 141.241,275.639 141.241,287.828 C141.241,300.016 131.361,309.897 119.172,309.897 C106.984,309.897 97.103,300.016 97.103,287.828 C97.103,275.639 106.984,265.759 119.172,265.759" id="Fill-17" fill="#8D94A6"></path>
        <path d="M467.862,371.69 L317.793,371.69 C312.918,371.69 308.966,367.737 308.966,362.862 L308.966,212.793 C308.966,207.918 312.918,203.965 317.793,203.965 L467.862,203.965 C472.737,203.965 476.69,207.918 476.69,212.793 L476.69,362.862 C476.69,367.737 472.737,371.69 467.862,371.69" id="Fill-18" fill="#3F3F48"></path>
        <path d="M392.828,221.621 C429.393,221.621 459.034,251.262 459.034,287.828 C459.034,324.393 429.393,354.034 392.828,354.034 C356.263,354.034 326.621,324.393 326.621,287.828 C326.621,251.262 356.263,221.621 392.828,221.621" id="Fill-19" fill="#787D8C"></path>
        <path d="M392.828,239.276 C419.642,239.276 441.379,261.013 441.379,287.828 C441.379,314.642 419.642,336.379 392.828,336.379 C366.013,336.379 344.276,314.642 344.276,287.828 C344.276,261.013 366.013,239.276 392.828,239.276" id="Fill-20" fill="#555761"></path>
        <path d="M392.828,265.759 C405.016,265.759 414.897,275.639 414.897,287.828 C414.897,300.016 405.016,309.897 392.828,309.897 C380.639,309.897 370.759,300.016 370.759,287.828 C370.759,275.639 380.639,265.759 392.828,265.759" id="Fill-21" fill="#8D94A6"></path>
        <path d="M441.379,115.69 C456.005,115.69 467.862,127.546 467.862,142.172 C467.862,156.798 456.005,168.655 441.379,168.655 C426.753,168.655 414.897,156.798 414.897,142.172 C414.897,127.546 426.753,115.69 441.379,115.69" id="Fill-22" fill="#F8C356"></path>
        <path d="M105.931,151 C105.931,146.121 101.983,142.172 97.103,142.172 C92.224,142.172 88.276,146.121 88.276,151 L88.276,168.655 L105.931,168.655 L105.931,151" id="Fill-23" fill="#D69E49"></path>
        <path d="M150.069,151 C150.069,146.121 146.121,142.172 141.241,142.172 C136.362,142.172 132.414,146.121 132.414,151 L132.414,168.655 L150.069,168.655 L150.069,151" id="Fill-24" fill="#D69E49"></path>
        <path d="M194.207,151 C194.207,146.121 190.259,142.172 185.379,142.172 C180.5,142.172 176.552,146.121 176.552,151 L176.552,168.655 L194.207,168.655 L194.207,151" id="Fill-25" fill="#D69E49"></path>
        <path d="M238.345,151 C238.345,146.121 234.397,142.172 229.517,142.172 C224.638,142.172 220.69,146.121 220.69,151 L220.69,168.655 L238.345,168.655 L238.345,151" id="Fill-26" fill="#D69E49"></path>
        <path d="M282.483,151 C282.483,146.121 278.535,142.172 273.655,142.172 C268.776,142.172 264.828,146.121 264.828,151 L264.828,168.655 L282.483,168.655 L282.483,151" id="Fill-27" fill="#D69E49"></path>
        <path d="M326.621,151 C326.621,146.121 322.673,142.172 317.793,142.172 C312.914,142.172 308.966,146.121 308.966,151 L308.966,168.655 L326.621,168.655 L326.621,151" id="Fill-28" fill="#D69E49"></path>
    </g>
</svg>